<?xml version="1.0" encoding="UTF-8" standalone="no"?>
<svg
   viewBox="0 0 292.46658 61"
   width="292.46658"
   height="61"
   version="1.1"
   id="svg11"
   xmlns="http://www.w3.org/2000/svg"
   xmlns:svg="http://www.w3.org/2000/svg">
  <defs
     id="defs4" />
  <g
     transform="translate(37,28)"
     id="g10">
    <polygon
       points="-24,-17 -24,-28 -13,-22 -2,-28 -2,-17 -13,-11 "
       fill="url(#g2)"
       id="polygon4"
       style="fill:#eac01b;fill-opacity:0.498208" />
    <polygon
       points="2,-17 2,-28 13,-22 24,-28 24,-17 13,-11 "
       fill="url(#g2)"
       id="polygon5"
       style="fill:#eac01b;fill-opacity:0.498208" />
    <polygon
       points="-37,6 -37,-6 -26,0 -15,-6 -15,6 -26,12 "
       fill="url(#g1)"
       id="polygon6"
       style="fill:#eac01b;fill-opacity:1" />
    <polygon
       points="-11,6 -11,-6 0,0 11,-6 11,6 0,12 "
       fill="url(#g1)"
       id="polygon7"
       style="fill:#eac01b;fill-opacity:1" />
    <polygon
       points="15,6 15,-6 26,0 37,-6 37,6 26,12 "
       fill="url(#g1)"
       id="polygon8"
       style="fill:#eac01b;fill-opacity:1" />
    <polygon
       points="-24,27 -24,16 -13,22 -2,16 -2,27 -13,33 "
       fill="url(#g2)"
       id="polygon9"
       style="fill:#eac01b;fill-opacity:0.516129" />
    <polygon
       points="2,27 2,16 13,22 24,16 24,27 13,33 "
       fill="url(#g2)"
       id="polygon10"
       style="fill:#eac01b;fill-opacity:0.512545" />
  </g>
  <path
     d="M 90.31091,48.035919 V 7.686021 h 6.06603 v 17.087775 h 20.03954 V 7.686021 h 6.06603 v 40.349898 h -6.06603 V 30.054488 H 96.37694 v 17.981431 z m 39.40208,0 V 19.059818 h 5.79522 v 28.976101 z m 2.89761,-33.823505 q -1.5165,0 -2.57264,-1.029058 -1.05614,-1.029058 -1.05614,-2.491403 0,-1.462346 1.05614,-2.491403 1.05614,-1.029058 2.57264,-1.029058 1.54359,0 2.59973,1.029058 1.05614,1.001977 1.05614,2.491403 0,1.489425 -1.05614,2.518483 -1.05614,1.001978 -2.59973,1.001978 z m 18.08976,33.823505 -11.02175,-28.976101 h 6.17434 l 5.76814,16.031637 q 0.8395,2.356001 1.54359,4.712002 0.73117,2.356 1.43526,4.684921 h -1.46234 q 0.70409,-2.328921 1.40818,-4.684921 0.7041,-2.356001 1.51651,-4.712002 l 5.6869,-16.031637 h 6.12018 l -11.02175,28.976101 z m 32.68613,0.649931 q -4.27872,0 -7.39297,-1.922713 -3.08718,-1.922713 -4.73908,-5.307772 -1.65191,-3.412139 -1.65191,-7.826255 0,-4.414117 1.70607,-7.826256 1.70607,-3.439219 4.73908,-5.389013 3.03301,-1.949794 6.98676,-1.949794 2.95177,0 5.38901,1.029058 2.46432,1.029058 4.25164,3.005932 1.78731,1.949794 2.7622,4.739082 1.00198,2.762208 1.00198,6.228508 v 1.706069 h -24.10162 v -4.359955 h 21.09569 l -2.59973,1.354023 q 0,-2.708046 -0.94781,-4.684921 -0.92074,-2.003954 -2.65389,-3.087173 -1.73315,-1.110299 -4.14331,-1.110299 -2.38308,0 -4.14331,1.110299 -1.73315,1.083219 -2.70805,3.060093 -0.94782,1.949794 -0.94782,4.549519 v 2.599725 q 0,2.789288 0.9749,4.874484 0.9749,2.085196 2.78929,3.249656 1.84147,1.13738 4.41412,1.13738 1.84147,0 3.24965,-0.541609 1.40819,-0.56869 2.356,-1.570668 0.9749,-1.029057 1.40819,-2.383081 l 5.52441,0.297885 q -0.56869,2.653886 -2.32892,4.684921 -1.76023,2.031036 -4.41411,3.195496 -2.62681,1.137379 -5.87646,1.137379 z m 18.79384,-0.649931 V 7.686021 h 15.05674 q 4.19747,0 7.09508,1.326943 2.92469,1.326943 4.4412,3.710024 1.54358,2.383081 1.54358,5.551496 0,2.383081 -0.83949,4.116231 -0.8395,1.73315 -2.38308,2.87053 -1.51651,1.13738 -3.57462,1.76023 v 0.108322 q 2.30184,0.297885 4.19747,1.462346 1.89563,1.16446 3.03301,3.222575 1.16446,2.058116 1.16446,4.982807 0,3.330897 -1.57067,5.876461 -1.57066,2.545564 -4.712,3.953749 -3.14133,1.408184 -7.90749,1.408184 z m 6.01186,-5.118208 h 9.09904 q 4.17039,0 6.30975,-1.624829 2.16643,-1.624828 2.16643,-4.576599 0,-2.031035 -0.97489,-3.520461 -0.9749,-1.516506 -2.81637,-2.356001 -1.84147,-0.839494 -4.46828,-0.839494 h -9.31568 z m 0,-17.818949 h 8.85531 q 2.2206,0 3.84543,-0.758253 1.65191,-0.758253 2.51848,-2.139357 0.89366,-1.408184 0.89366,-3.303817 0,-2.762208 -1.89563,-4.414117 -1.86856,-1.678989 -5.33486,-1.678989 h -8.88239 z m 41.64977,23.587088 q -4.11623,0 -7.23049,-1.895632 -3.11425,-1.922714 -4.8474,-5.307772 -1.70607,-3.412139 -1.70607,-7.853336 0,-4.495358 1.70607,-7.907497 1.73315,-3.412139 4.8474,-5.334852 3.11426,-1.922714 7.23049,-1.922714 4.14331,0 7.23049,1.922714 3.11425,1.922713 4.82032,5.334852 1.73315,3.412139 1.73315,7.907497 0,4.441197 -1.73315,7.853336 -1.70607,3.385058 -4.82032,5.307772 -3.08718,1.895632 -7.23049,1.895632 z m 0,-4.955725 q 2.51848,0 4.27871,-1.272782 1.78731,-1.272782 2.70805,-3.547542 0.94782,-2.30184 0.94782,-5.280691 0,-3.033013 -0.94782,-5.307772 -0.92074,-2.30184 -2.70805,-3.574622 -1.76023,-1.299863 -4.27871,-1.299863 -2.4914,0 -4.27871,1.272783 -1.78732,1.272782 -2.73513,3.574621 -0.92074,2.27476 -0.92074,5.334853 0,3.005932 0.92074,5.280691 0.94781,2.27476 2.70805,3.547542 1.78731,1.272782 4.30579,1.272782 z m 15.13798,4.305794 11.83416,-16.708649 -0.0542,3.791266 -11.13007,-16.058718 h 6.55347 l 3.43922,5.19945 q 1.19154,1.841471 2.24768,3.628782 1.08322,1.760231 2.16644,3.520461 h -2.43725 q 1.1103,-1.76023 2.16644,-3.520461 1.05614,-1.787311 2.27476,-3.628782 l 3.49338,-5.19945 h 6.44515 l -11.23839,16.085798 0.0271,-3.764185 11.69876,16.654488 h -6.55347 l -4.00791,-5.930622 q -1.19154,-1.814392 -2.24768,-3.520461 -1.02906,-1.70607 -2.11228,-3.41214 h 2.38309 q -1.08322,1.70607 -2.13936,3.41214 -1.02906,1.706069 -2.2206,3.520461 l -4.06207,5.930622 z"
     id="text12"
     style="font-weight:500;font-size:55.4608px;font-family:'Inter 28pt';-inkscape-font-specification:'Inter 28pt Medium';fill:#eabb1b;stroke-width:0.577717"
     aria-label="HiveBox" />
</svg>
