<svg xmlns="http://www.w3.org/2000/svg" xmlns:xlink="http://www.w3.org/1999/xlink" width="67" height="17.1667mm" version="1.2" baseProfile="tiny"><defs id="SvgjsDefs70365"><linearGradient id="SvgjsLinearGradient70372"><stop id="SvgjsStop70373" stop-color="#1F3BB3" offset="0"/><stop id="SvgjsStop70374" stop-color="#526ce0" offset="1"/></linearGradient><linearGradient id="SvgjsLinearGradient70375"><stop id="SvgjsStop70376" stop-color="#1F3BB3" offset="0"/><stop id="SvgjsStop70377" stop-color="#526ce0" offset="1"/></linearGradient></defs><g xmlns="http://www.w3.org/2000/svg" id="SvgjsG70366" featurekey="symbolFeature-0" transform="matrix(2.5612647062792555,0,0,2.5612647062792555,-8.580185226914544,-8.580492996072898)" fill="url(#SvgjsLinearGradient70372)"><path xmlns="http://www.w3.org/2000/svg" fill-rule="evenodd" clip-rule="evenodd" d="M16 3.3501C16.359 3.3501 16.65 3.64111 16.65 4.0001V4.7501C16.65 5.10908 16.359 5.4001 16 5.4001C15.641 5.4001 15.35 5.10908 15.35 4.7501V4.0001C15.35 3.64111 15.641 3.3501 16 3.3501ZM12.7259 3.78139C13.0727 3.68848 13.4291 3.89426 13.522 4.24101L13.7161 4.96545C13.809 5.31221 13.6032 5.66863 13.2565 5.76154C12.9097 5.85445 12.5533 5.64867 12.4604 5.30192L12.2663 4.57748C12.1734 4.23072 12.3792 3.8743 12.7259 3.78139ZM19.274 3.78146C19.6208 3.87437 19.8266 4.23079 19.7337 4.57754L19.5396 5.30199C19.4466 5.64874 19.0902 5.85452 18.7435 5.76161C18.3967 5.6687 18.1909 5.31228 18.2838 4.96552L18.478 4.24108C18.5709 3.89433 18.9273 3.68855 19.274 3.78146ZM22.325 5.04513C22.6359 5.22463 22.7424 5.62216 22.5629 5.93305L22.1879 6.58257C22.0084 6.89346 21.6109 6.99998 21.3 6.82048C20.9891 6.64099 20.8826 6.24346 21.0621 5.93257L21.4371 5.28305C21.6166 4.97216 22.0141 4.86564 22.325 5.04513ZM9.67499 5.0452C9.98588 4.86571 10.3834 4.97223 10.5629 5.28312L10.9379 5.93264C11.1174 6.24353 11.0109 6.64106 10.7 6.82055C10.3891 7.00005 9.99156 6.89353 9.81207 6.58264L9.43707 5.93312C9.25758 5.62223 9.3641 5.22469 9.67499 5.0452ZM24.9449 7.0552C25.1987 7.30904 25.1987 7.7206 24.9449 7.97444L24.4145 8.50477C24.1607 8.75861 23.7491 8.75861 23.4953 8.50477C23.2415 8.25093 23.2415 7.83937 23.4953 7.58553L24.0256 7.0552C24.2795 6.80136 24.691 6.80136 24.9449 7.0552ZM7.05507 7.0552C7.30891 6.80136 7.72047 6.80136 7.97431 7.0552L8.50464 7.58553C8.75848 7.83937 8.75848 8.25093 8.50464 8.50477C8.2508 8.75861 7.83925 8.75861 7.5854 8.50477L7.05507 7.97444C6.80123 7.7206 6.80123 7.30904 7.05507 7.0552ZM16 8.3501C16.359 8.3501 16.65 8.64111 16.65 9.0001V11.3334C16.65 11.6924 16.359 11.9834 16 11.9834C15.641 11.9834 15.35 11.6924 15.35 11.3334V9.0001C15.35 8.64111 15.641 8.3501 16 8.3501ZM13.1342 8.90706C13.4671 8.77258 13.8459 8.93339 13.9804 9.26624L14.1443 9.67188C14.2787 10.0047 14.1179 10.3836 13.7851 10.518C13.4522 10.6525 13.0734 10.4917 12.9389 10.1589L12.775 9.75323C12.6406 9.42038 12.8014 9.04154 13.1342 8.90706ZM18.989 8.95815C19.3195 9.09842 19.4737 9.48001 19.3334 9.81046L19.1624 10.2132C19.0222 10.5436 18.6406 10.6978 18.3101 10.5575C17.9797 10.4173 17.8255 10.0357 17.9658 9.70523L18.1367 9.30251C18.277 8.97206 18.6586 8.81789 18.989 8.95815ZM5.04475 9.67535C5.22424 9.36446 5.62178 9.25795 5.93267 9.43744L6.58219 9.81244C6.89308 9.99193 6.9996 10.3895 6.8201 10.7004C6.64061 11.0112 6.24308 11.1178 5.93219 10.9383L5.28267 10.5633C4.97178 10.3838 4.86526 9.98624 5.04475 9.67535ZM26.9552 9.67542C27.1347 9.98631 27.0282 10.3838 26.7173 10.5633L26.0678 10.9383C25.7569 11.1178 25.3593 11.0113 25.1799 10.7004C25.0004 10.3895 25.1069 9.992 25.4178 9.81251L26.0673 9.43751C26.3782 9.25801 26.7757 9.36453 26.9552 9.67542ZM10.5906 10.5907C10.8444 10.3369 11.256 10.3369 11.5098 10.5907L13.1598 12.2406C13.4136 12.4945 13.4136 12.906 13.1598 13.1599C12.9059 13.4137 12.4944 13.4137 12.2405 13.1599L10.5906 11.51C10.3368 11.2561 10.3368 10.8446 10.5906 10.5907ZM21.4093 10.5907C21.6632 10.8446 21.6632 11.2561 21.4093 11.51L19.7594 13.1599C19.5056 13.4137 19.094 13.4137 18.8402 13.1599C18.5863 12.906 18.5863 12.4945 18.8402 12.2406L20.4901 10.5907C20.7439 10.3369 21.1555 10.3369 21.4093 10.5907ZM28.2189 12.7263C28.3118 13.073 28.1061 13.4295 27.7593 13.5224L27.0349 13.7165C26.6881 13.8094 26.3317 13.6036 26.2388 13.2569C26.1459 12.9101 26.3517 12.5537 26.6984 12.4608L27.4229 12.2667C27.7696 12.1738 28.126 12.3795 28.2189 12.7263ZM3.78103 12.7264C3.87394 12.3796 4.23036 12.1738 4.57711 12.2667L5.30155 12.4609C5.64831 12.5538 5.85409 12.9102 5.76117 13.2569C5.66826 13.6037 5.31184 13.8095 4.96509 13.7166L4.24064 13.5224C3.89389 13.4295 3.68811 13.0731 3.78103 12.7264ZM8.95808 13.0109C9.09835 12.6805 9.47994 12.5263 9.81039 12.6666L10.2131 12.8375C10.5436 12.9778 10.6977 13.3594 10.5575 13.6898C10.4172 14.0203 10.0356 14.1744 9.70516 14.0342L9.30244 13.8632C8.97199 13.723 8.81782 13.3414 8.95808 13.0109ZM23.0929 13.1343C23.2274 13.4671 23.0666 13.846 22.7337 13.9804L22.3281 14.1443C21.9952 14.2788 21.6164 14.118 21.4819 13.7852C21.3474 13.4523 21.5083 13.0735 21.8411 12.939L22.2467 12.7751C22.5796 12.6406 22.9584 12.8014 23.0929 13.1343ZM3.34998 16.0001C3.34998 15.6411 3.64099 15.3501 3.99998 15.3501H4.74998C5.10896 15.3501 5.39998 15.6411 5.39998 16.0001C5.39998 16.3591 5.10896 16.6501 4.74998 16.6501H3.99998C3.64099 16.6501 3.34998 16.3591 3.34998 16.0001ZM8.34998 16.0001C8.34998 15.6411 8.64099 15.3501 8.99998 15.3501H11.3333C11.6923 15.3501 11.9833 15.6411 11.9833 16.0001C11.9833 16.3591 11.6923 16.6501 11.3333 16.6501H8.99998C8.64099 16.6501 8.34998 16.3591 8.34998 16.0001ZM20.0166 16.0001C20.0166 15.6411 20.3077 15.3501 20.6666 15.3501H23C23.359 15.3501 23.65 15.6411 23.65 16.0001C23.65 16.3591 23.359 16.6501 23 16.6501H20.6666C20.3077 16.6501 20.0166 16.3591 20.0166 16.0001ZM26.6 16.0001C26.6 15.6411 26.891 15.3501 27.25 15.3501H28C28.359 15.3501 28.65 15.6411 28.65 16.0001C28.65 16.3591 28.359 16.6501 28 16.6501H27.25C26.891 16.6501 26.6 16.3591 26.6 16.0001ZM10.518 18.2149C10.6525 18.5477 10.4916 18.9266 10.1588 19.061L9.75316 19.2249C9.42031 19.3594 9.04147 19.1986 8.90699 18.8658C8.77251 18.5329 8.93332 18.1541 9.26616 18.0196L9.67181 17.8557C10.0047 17.7212 10.3835 17.882 10.518 18.2149ZM21.4424 18.3102C21.5827 17.9798 21.9643 17.8256 22.2947 17.9659L22.6975 18.1368C23.0279 18.2771 23.1821 18.6587 23.0418 18.9891C22.9015 19.3196 22.52 19.4737 22.1895 19.3335L21.7868 19.1625C21.4563 19.0223 21.3022 18.6407 21.4424 18.3102ZM5.76116 18.7438C5.85407 19.0906 5.64829 19.447 5.30154 19.5399L4.5771 19.734C4.23034 19.8269 3.87392 19.6212 3.78101 19.2744C3.6881 18.9277 3.89388 18.5712 4.24063 18.4783L4.96508 18.2842C5.31183 18.1913 5.66825 18.3971 5.76116 18.7438ZM26.2388 18.7439C26.3317 18.3972 26.6881 18.1914 27.0349 18.2843L27.7593 18.4784C28.1061 18.5713 28.3119 18.9277 28.2189 19.2745C28.126 19.6212 27.7696 19.827 27.4229 19.7341L26.6984 19.54C26.3517 19.4471 26.1459 19.0907 26.2388 18.7439ZM18.8402 18.8403C19.094 18.5865 19.5056 18.5865 19.7594 18.8403L21.4093 20.4902C21.6632 20.7441 21.6632 21.1556 21.4093 21.4095C21.1555 21.6633 20.7439 21.6633 20.4901 21.4095L18.8402 19.7595C18.5863 19.5057 18.5863 19.0942 18.8402 18.8403ZM13.1598 18.8403C13.4136 19.0942 13.4136 19.5057 13.1598 19.7596L11.5098 21.4095C11.256 21.6633 10.8444 21.6633 10.5906 21.4095C10.3368 21.1556 10.3368 20.7441 10.5906 20.4902L12.2405 18.8403C12.4944 18.5865 12.9059 18.5865 13.1598 18.8403ZM16 20.0168C16.359 20.0168 16.65 20.3078 16.65 20.6668V23.0001C16.65 23.3591 16.359 23.6501 16 23.6501C15.641 23.6501 15.35 23.3591 15.35 23.0001V20.6668C15.35 20.3078 15.641 20.0168 16 20.0168ZM25.1798 21.3004C25.3593 20.9895 25.7569 20.8829 26.0678 21.0624L26.7173 21.4374C27.0282 21.6169 27.1347 22.0145 26.9552 22.3254C26.7757 22.6362 26.3782 22.7428 26.0673 22.5633L25.4178 22.1883C25.1069 22.0088 25.0003 21.6112 25.1798 21.3004ZM6.82012 21.3004C6.99961 21.6113 6.89309 22.0088 6.5822 22.1883L5.93268 22.5633C5.62179 22.7428 5.22426 22.6363 5.04477 22.3254C4.86527 22.0145 4.97179 21.617 5.28268 21.4375L5.9322 21.0625C6.24309 20.883 6.64063 20.9895 6.82012 21.3004ZM13.6898 21.4425C14.0202 21.5828 14.1744 21.9644 14.0341 22.2948L13.8632 22.6975C13.7229 23.028 13.3413 23.1821 13.0108 23.0419C12.6804 22.9016 12.5262 22.52 12.6665 22.1896L12.8374 21.7869C12.9777 21.4564 13.3593 21.3022 13.6898 21.4425ZM18.2148 21.482C18.5476 21.3475 18.9265 21.5083 19.061 21.8412L19.2249 22.2468C19.3593 22.5797 19.1985 22.9585 18.8657 23.093C18.5328 23.2275 18.154 23.0666 18.0195 22.7338L17.8556 22.3282C17.7212 21.9953 17.882 21.6165 18.2148 21.482ZM8.50464 23.4954C8.75849 23.7493 8.75848 24.1608 8.50464 24.4147L7.97431 24.945C7.72047 25.1988 7.30892 25.1988 7.05508 24.945C6.80124 24.6912 6.80124 24.2796 7.05508 24.0258L7.58541 23.4954C7.83925 23.2416 8.2508 23.2416 8.50464 23.4954ZM23.4953 23.4954C23.7491 23.2416 24.1607 23.2416 24.4145 23.4954L24.9449 24.0258C25.1987 24.2796 25.1987 24.6912 24.9449 24.945C24.691 25.1988 24.2795 25.1988 24.0256 24.945L23.4953 24.4147C23.2415 24.1608 23.2415 23.7493 23.4953 23.4954ZM10.7 25.1802C11.0109 25.3597 11.1174 25.7572 10.9379 26.0681L10.5629 26.7177C10.3834 27.0285 9.98587 27.1351 9.67497 26.9556C9.36408 26.7761 9.25757 26.3785 9.43706 26.0677L9.81206 25.4181C9.99155 25.1072 10.3891 25.0007 10.7 25.1802ZM21.3 25.1803C21.6109 25.0008 22.0084 25.1073 22.1879 25.4182L22.5629 26.0677C22.7424 26.3786 22.6359 26.7761 22.325 26.9556C22.0141 27.1351 21.6166 27.0286 21.4371 26.7177L21.0621 26.0682C20.8826 25.7573 20.9891 25.3598 21.3 25.1803ZM18.7435 26.2392C19.0902 26.1463 19.4466 26.352 19.5395 26.6988L19.7337 27.4232C19.8266 27.77 19.6208 28.1264 19.274 28.2193C18.9273 28.3122 18.5709 28.1064 18.478 27.7597L18.2838 27.0352C18.1909 26.6885 18.3967 26.3321 18.7435 26.2392ZM13.2565 26.2392C13.6033 26.3321 13.809 26.6886 13.7161 27.0353L13.522 27.7598C13.4291 28.1065 13.0727 28.3123 12.7259 28.2194C12.3792 28.1265 12.1734 27.7701 12.2663 27.4233L12.4604 26.6989C12.5533 26.3521 12.9098 26.1463 13.2565 26.2392ZM16 26.6001C16.359 26.6001 16.65 26.8911 16.65 27.2501V28.0001C16.65 28.3591 16.359 28.6501 16 28.6501C15.641 28.6501 15.35 28.3591 15.35 28.0001V27.2501C15.35 26.8911 15.641 26.6001 16 26.6001Z" fill="black" style="fill: url('#SvgjsLinearGradient70372');"/></g></svg>